Format                                   : AVI
Format/Info                              : Audio Video Interleave
File size                                : 149 MiB
Duration                                 : 42mn 39s
Overall bit rate                         : 489 Kbps

Video
Format                                   : MPEG-4 Visual
Format profile                           : Advanced Simple@L5
Format settings, Matrix                  : Default (H.263)
Muxing mode                              : Packed bitstream
Codec ID                                 : XVID
Codec ID/Hint                            : XviD
Duration                                 : 42mn 39s
Bit rate                                 : 352 Kbps
Width                                    : 624 pixels
Height                                   : 352 pixels
Display aspect ratio                     : 16:9
Frame rate                               : 23.976 fps
Color space                              : YUV
Chroma subsampling                       : 4:2:0
Bit depth                                : 8 bits
Scan type                                : Progressive
Bits/(Pixel*Frame)                       : 0.067
Stream size                              : 107 MiB (72%)
Writing library                          : XviD 64

Audio
Format                                   : MPEG Audio
Format version                           : Version 1
Format profile                           : Layer 3
Codec ID                                 : 55
Codec ID/Hint                            : MP3
Duration                                 : 42mn 39s
Bit rate mode                            : Constant
Bit rate                                 : 128 Kbps
Channel(s)                               : 2 channels
Sampling rate                            : 48.0 KHz
Stream size                              : 39.1 MiB (26%)
Alignment                                : Split accross interleaves
Interleave, duration                     : 42 ms (1.00 video frame)